<svg width="223" height="32" viewBox="0 0 223 32" fill="none" xmlns="http://www.w3.org/2000/svg">
<path d="M0 16.7344V12.2344L18 4.30823V9.48579L5.67614 14.4332L5.84233 14.1648V14.804L5.67614 14.5355L18 19.483V24.6605L0 16.7344ZM22.0699 1.22727H28.8966L36.1069 18.8182H36.4137L43.6239 1.22727H50.4506V27.4091H45.0813V10.3679H44.864L38.0884 27.2812H34.4322L27.6566 10.304H27.4393V27.4091H22.0699V1.22727ZM58.7617 1.22727L64.0415 10.1506H64.2461L69.5515 1.22727H75.8029L67.8128 14.3182L75.9819 27.4091H69.6154L64.2461 18.473H64.0415L58.6722 27.4091H52.3313L60.5259 14.3182L52.4847 1.22727H58.7617ZM77.8657 27.4091V1.22727H95.201V5.79119H83.4012V12.0298H94.0504V16.5937H83.4012V27.4091H77.8657Z" fill="#7E56F6"/>
<path d="M97.0656 27.4091V7.77272H102.345V11.1989H102.55C102.908 9.98011 103.509 9.05966 104.353 8.4375C105.196 7.80682 106.168 7.49147 107.267 7.49147C107.54 7.49147 107.834 7.50852 108.149 7.54261C108.465 7.5767 108.742 7.62358 108.98 7.68323V12.5156C108.725 12.4389 108.371 12.3707 107.919 12.3111C107.468 12.2514 107.054 12.2216 106.679 12.2216C105.878 12.2216 105.162 12.3963 104.532 12.7457C103.909 13.0866 103.415 13.5639 103.049 14.1776C102.691 14.7912 102.512 15.4986 102.512 16.2997V27.4091H97.0656ZM118.391 27.7926C116.371 27.7926 114.632 27.3835 113.175 26.5653C111.726 25.7386 110.61 24.571 109.826 23.0625C109.041 21.5455 108.649 19.7514 108.649 17.6804C108.649 15.6605 109.041 13.8878 109.826 12.3622C110.61 10.8366 111.713 9.64772 113.137 8.79545C114.568 7.94318 116.247 7.51704 118.174 7.51704C119.469 7.51704 120.675 7.72585 121.791 8.14346C122.916 8.55255 123.897 9.17045 124.732 9.99716C125.576 10.8239 126.232 11.8636 126.701 13.1165C127.169 14.3608 127.404 15.8182 127.404 17.4886V18.9844H110.823V15.6094H122.277C122.277 14.8253 122.107 14.1307 121.766 13.5256C121.425 12.9205 120.952 12.4474 120.347 12.1065C119.75 11.7571 119.056 11.5824 118.263 11.5824C117.436 11.5824 116.703 11.7741 116.064 12.1577C115.434 12.5327 114.939 13.0398 114.581 13.679C114.223 14.3097 114.04 15.0128 114.032 15.7883V18.9972C114.032 19.9687 114.211 20.8082 114.568 21.5156C114.935 22.223 115.451 22.7685 116.115 23.152C116.78 23.5355 117.568 23.7273 118.48 23.7273C119.086 23.7273 119.639 23.642 120.142 23.4716C120.645 23.3011 121.076 23.0455 121.434 22.7045C121.791 22.3636 122.064 21.946 122.252 21.4517L127.289 21.7841C127.033 22.9943 126.509 24.0511 125.716 24.9545C124.932 25.8494 123.918 26.5483 122.674 27.0511C121.438 27.5455 120.01 27.7926 118.391 27.7926ZM134.964 16.0568V27.4091H129.518V7.77272H134.708V11.2372H134.938C135.373 10.0952 136.101 9.19176 137.124 8.52698C138.147 7.85369 139.387 7.51704 140.844 7.51704C142.208 7.51704 143.397 7.81534 144.411 8.41193C145.425 9.00852 146.214 9.86079 146.776 10.9687C147.339 12.0682 147.62 13.3807 147.62 14.9062V27.4091H142.174V15.8778C142.182 14.6761 141.876 13.7386 141.253 13.0653C140.631 12.3835 139.775 12.0426 138.684 12.0426C137.951 12.0426 137.303 12.2003 136.741 12.5156C136.187 12.831 135.752 13.2912 135.437 13.8963C135.13 14.4929 134.972 15.2131 134.964 16.0568ZM159.344 27.7926C157.333 27.7926 155.603 27.3665 154.154 26.5142C152.714 25.6534 151.606 24.4602 150.83 22.9347C150.063 21.4091 149.68 19.6534 149.68 17.6676C149.68 15.6562 150.067 13.892 150.843 12.375C151.627 10.8494 152.739 9.66051 154.18 8.80823C155.62 7.94744 157.333 7.51704 159.319 7.51704C161.032 7.51704 162.532 7.82812 163.819 8.45028C165.106 9.07244 166.124 9.94602 166.874 11.071C167.624 12.196 168.038 13.517 168.114 15.0341H162.975C162.83 14.054 162.447 13.2656 161.824 12.669C161.211 12.0639 160.405 11.7614 159.408 11.7614C158.565 11.7614 157.827 11.9915 157.197 12.4517C156.574 12.9034 156.089 13.5639 155.739 14.4332C155.39 15.3026 155.215 16.3551 155.215 17.5909C155.215 18.8437 155.386 19.9091 155.726 20.7869C156.076 21.6648 156.566 22.3338 157.197 22.794C157.827 23.2543 158.565 23.4844 159.408 23.4844C160.03 23.4844 160.589 23.3565 161.083 23.1008C161.586 22.8452 161.999 22.4744 162.323 21.9886C162.655 21.4943 162.873 20.902 162.975 20.2116H168.114C168.029 21.7116 167.62 23.0327 166.887 24.1747C166.163 25.3082 165.161 26.1946 163.883 26.8338C162.604 27.473 161.092 27.7926 159.344 27.7926ZM175.607 16.0568V27.4091H170.161V1.22727H175.454V11.2372H175.684C176.127 10.0781 176.843 9.17045 177.832 8.5142C178.82 7.84943 180.06 7.51704 181.552 7.51704C182.915 7.51704 184.104 7.81534 185.118 8.41193C186.141 9 186.934 9.84801 187.496 10.956C188.067 12.0554 188.349 13.3722 188.34 14.9062V27.4091H182.894V15.8778C182.903 14.6676 182.596 13.7258 181.974 13.0526C181.36 12.3793 180.499 12.0426 179.391 12.0426C178.65 12.0426 177.993 12.2003 177.422 12.5156C176.86 12.831 176.417 13.2912 176.093 13.8963C175.778 14.4929 175.616 15.2131 175.607 16.0568ZM202.589 -4.52995e-06L194.152 31.3466H189.46L197.898 -4.52995e-06H202.589ZM222.834 19.1889L204.834 27.1151V21.9375L217.158 16.9901L216.992 17.2585V16.6193L217.158 16.8878L204.834 11.9403V6.76278L222.834 14.6889V19.1889Z" fill="#F0EEF8"/>
</svg>
